HIERARCHY
ROOT hip
{
  OFFSET 0 0 0
  CHANNELS 6 Xposition Yposition Zposition Zrotation Yrotation Xrotation
  JOINT abdomen
  {
    OFFSET 0 20.6881 -0.73152
    CHANNELS 3 Zrotation Xrotation Yrotation
    JOINT chest
    {
      OFFSET 0 11.7043 -0.48768
      CHANNELS 3 Zrotation Xrotation Yrotation
      JOINT neck
      {
        OFFSET 0 22.1894 -2.19456
        CHANNELS 3 Zrotation Xrotation Yrotation
        JOINT head
        {
          OFFSET -0.24384 7.07133 1.2192
          CHANNELS 3 Zrotation Xrotation Yrotation
          JOINT leftEye
          {
            OFFSET 4.14528 8.04674 8.04672
            CHANNELS 3 Zrotation Xrotation Yrotation
            End Site
            {
              OFFSET 1 0 0
            }
          }
          JOINT rightEye
          {
            OFFSET -3.6576 8.04674 8.04672
            CHANNELS 3 Zrotation Xrotation Yrotation
            End Site
            {
              OFFSET 1 0 0
            }
          }
        }
      }
      JOINT rCollar
      {
        OFFSET -2.68224 19.2634 -4.8768
        CHANNELS 3 Zrotation Xrotation Yrotation
        JOINT rShldr
        {
          OFFSET -8.77824 -1.95073 1.46304
          CHANNELS 3 Zrotation Xrotation Yrotation
          JOINT rForeArm
          {
            OFFSET -28.1742 -1.7115 0.48768
            CHANNELS 3 Zrotation Xrotation Yrotation
            JOINT rHand
            {
              OFFSET -22.5879 0.773209 7.07136
              CHANNELS 3 Zrotation Xrotation Yrotation
              JOINT rThumb1
              {
                OFFSET -1.2192 -0.487915 3.41376
                CHANNELS 3 Zrotation Xrotation Yrotation
                JOINT rThumb2
                {
                  OFFSET -3.37035 -0.52449 3.41376
                  CHANNELS 3 Zrotation Xrotation Yrotation
                  End Site
                  {
                    OFFSET -1.78271 -1.18214 1.43049
                  }
                }
              }
              JOINT rIndex1
              {
                OFFSET -7.75947 0.938293 5.60832
                CHANNELS 3 Zrotation Xrotation Yrotation
                JOINT rIndex2
                {
                  OFFSET -2.54057 -0.884171 1.56538
                  CHANNELS 3 Zrotation Xrotation Yrotation
                  End Site
                  {
                    OFFSET -1.62519 -0.234802 1.16502
                  }
                }
              }
              JOINT rMid1
              {
                OFFSET -8.24714 1.18213 3.41376
                CHANNELS 3 Zrotation Xrotation Yrotation
                JOINT rMid2
                {
                  OFFSET -3.10165 -0.590103 1.0647
                  CHANNELS 3 Zrotation Xrotation Yrotation
                  End Site
                  {
                    OFFSET -2.48547 -0.328903 0.83742
                  }
                }
              }
              JOINT rRing1
              {
                OFFSET -8.82822 0.546677 1.51678
                CHANNELS 3 Zrotation Xrotation Yrotation
                JOINT rRing2
                {
                  OFFSET -2.60934 -0.819778 -0.0198488
                  CHANNELS 3 Zrotation Xrotation Yrotation
                  End Site
                  {
                    OFFSET -2.33842 -0.294052 0.168128
                  }
                }
              }
              JOINT rPinky1
              {
                OFFSET -8.27202 -0.0477905 -0.4584
                CHANNELS 3 Zrotation Xrotation Yrotation
                JOINT rPinky2
                {
                  OFFSET -1.82734 -0.647385 -0.700984
                  CHANNELS 3 Zrotation Xrotation Yrotation
                  End Site
                  {
                    OFFSET -1.69225 -0.51767 -0.607171
                  }
                }
              }
            }
          }
        }
      }
      JOINT lCollar
      {
        OFFSET 2.68224 19.2634 -4.8768
        CHANNELS 3 Zrotation Xrotation Yrotation
        JOINT lShldr
        {
          OFFSET 8.77824 -1.95073 1.46304
          CHANNELS 3 Zrotation Xrotation Yrotation
          JOINT lForeArm
          {
            OFFSET 28.1742 -1.7115 0.48768
            CHANNELS 3 Zrotation Xrotation Yrotation
            JOINT lHand
            {
              OFFSET 22.5879 0.773209 7.07136
              CHANNELS 3 Zrotation Xrotation Yrotation
              JOINT lThumb1
              {
                OFFSET 1.2192 -0.487915 3.41376
                CHANNELS 3 Zrotation Xrotation Yrotation
                JOINT lThumb2
                {
                  OFFSET 3.37035 -0.52449 3.41376
                  CHANNELS 3 Zrotation Xrotation Yrotation
                  End Site
                  {
                    OFFSET 1.78271 -1.18214 1.43049
                  }
                }
              }
              JOINT lIndex1
              {
                OFFSET 7.75947 0.938293 5.60832
                CHANNELS 3 Zrotation Xrotation Yrotation
                JOINT lIndex2
                {
                  OFFSET 2.54057 -0.884171 1.56538
                  CHANNELS 3 Zrotation Xrotation Yrotation
                  End Site
                  {
                    OFFSET 1.62519 -0.234802 1.16502
                  }
                }
              }
              JOINT lMid1
              {
                OFFSET 8.24714 1.18213 3.41376
                CHANNELS 3 Zrotation Xrotation Yrotation
                JOINT lMid2
                {
                  OFFSET 3.10165 -0.590103 1.0647
                  CHANNELS 3 Zrotation Xrotation Yrotation
                  End Site
                  {
                    OFFSET 2.48547 -0.328903 0.83742
                  }
                }
              }
              JOINT lRing1
              {
                OFFSET 8.82822 0.546677 1.51678
                CHANNELS 3 Zrotation Xrotation Yrotation
                JOINT lRing2
                {
                  OFFSET 2.60934 -0.819778 -0.0198488
                  CHANNELS 3 Zrotation Xrotation Yrotation
                  End Site
                  {
                    OFFSET 2.33842 -0.294052 0.168128
                  }
                }
              }
              JOINT lPinky1
              {
                OFFSET 8.27202 -0.0477905 -0.4584
                CHANNELS 3 Zrotation Xrotation Yrotation
                JOINT lPinky2
                {
                  OFFSET 1.82734 -0.647385 -0.700984
                  CHANNELS 3 Zrotation Xrotation Yrotation
                  End Site
                  {
                    OFFSET 1.69225 -0.51767 -0.607171
                  }
                }
              }
            }
          }
        }
      }
    }
  }
  JOINT rButtock
  {
    OFFSET -8.77824 4.35084 1.2192
    CHANNELS 3 Zrotation Xrotation Yrotation
    JOINT rThigh
    {
      OFFSET 0 -1.70687 -2.19456
      CHANNELS 3 Zrotation Xrotation Yrotation
      JOINT rShin
      {
        OFFSET 0 -36.8199 0.73152
        CHANNELS 3 Zrotation Xrotation Yrotation
        JOINT rFoot
        {
          OFFSET 0.73152 -45.1104 -5.12064
          CHANNELS 3 Zrotation Xrotation Yrotation
          End Site
          {
            OFFSET -1.1221 -3.69964 12.103
          }
        }
      }
    }
  }
  JOINT lButtock
  {
    OFFSET 8.77824 4.35084 1.2192
    CHANNELS 3 Zrotation Xrotation Yrotation
    JOINT lThigh
    {
      OFFSET 0 -1.70687 -2.19456
      CHANNELS 3 Zrotation Xrotation Yrotation
      JOINT lShin
      {
        OFFSET 0 -36.8199 0.73152
        CHANNELS 3 Zrotation Xrotation Yrotation
        JOINT lFoot
        {
          OFFSET -0.73152 -45.1104 -5.12064
          CHANNELS 3 Zrotation Xrotation Yrotation
          End Site
          {
            OFFSET 1.1221 -3.69964 12.103
          }
        }
      }
    }
  }
}
MOTION
Frames:	6
Frame Time:	0.00833333
122.783 86.4485 -209.492 9.4737 68.7715 364.463 -7.69683 -2.77448 -7.83752 3.66315 -7.35046 -1.90558 -7.74234 6.47578 -6.47694 17.5127 -7.08561 -10.1308 -0.0 0.0 0.0 -0.0 0.0 0.0 2.88005e-15 2.12651e-13 1.72709e-13 13.5152 1.15172 28.4972 -13.0502 -6.21369 23.6606 -0.592122 21.3421 3.14744 -1.01194e-09 -3.65332e-09 -1.66328e-10 -1.74993e-09 -6.27432e-09 -2.69818e-10 -1.01194e-09 -3.65332e-09 -1.66327e-10 7.73091 5.47488 0.417314 -1.01194e-09 -3.65332e-09 -1.66326e-10 2.90554 0.965183 0.102902 -1.01193e-09 -3.65332e-09 -1.66326e-10 10.2786 0.731801 0.0259123 -1.01194e-09 -3.65332e-09 -1.66316e-10 2.22167 -0.733487 -0.20892 2.81259e-15 2.12667e-13 1.72387e-13 -30.4433 7.55565 -48.7353 12.541 -5.83539 -22.6621 1.84837 35.5416 -5.76235 6.9959e-10 4.22626e-10 1.61361e-10 1.21222e-09 7.25429e-10 2.57467e-10 6.99582e-10 4.22627e-10 1.61379e-10 -7.73091 5.47488 -0.417314 6.99589e-10 4.22624e-10 1.61367e-10 -2.90554 0.965183 -0.102902 6.9958e-10 4.22625e-10 1.61368e-10 -10.2786 0.731801 -0.0259123 6.996e-10 4.22627e-10 1.61361e-10 -2.22167 -0.733487 0.20892 -2.03217e-16 0.0 -3.88251e-19 6.57958 -25.256 25.8743 0.0426617 19.8038 1.40292 -49.2192 -32.8005 -61.3798 2.03217e-16 0.0 3.88251e-19 -8.95455 12.0167 -9.04191 -0.029631 13.4074 -0.639969 8.08275 -13.7365 23.5099
123.332 86.4044 -209.085 9.9991 68.5655 365.096 -7.84247 -2.93045 -7.95862 3.72741 -7.3322 -1.93366 -7.7984 6.50045 -6.51215 17.6498 -7.14158 -10.1778 -0.0 0.0 0.0 -0.0 0.0 0.0 2.86654e-14 2.58415e-13 3.05482e-13 13.2001 1.34612 28.2632 -13.1299 -6.27328 23.8192 -0.566929 20.8895 3.0747 -1.39717e-09 -4.85874e-09 -1.34448e-10 -2.41366e-09 -8.33335e-09 -2.07382e-10 -1.39717e-09 -4.85874e-09 -1.34445e-10 7.73091 5.47488 0.417314 -1.39717e-09 -4.85874e-09 -1.34445e-10 2.90554 0.965183 0.102902 -1.39716e-09 -4.85874e-09 -1.34446e-10 10.2786 0.731801 0.0259123 -1.39717e-09 -4.85874e-09 -1.34436e-10 2.22167 -0.733487 -0.20892 2.85864e-14 2.58424e-13 3.05134e-13 -30.4243 7.53618 -48.8222 12.5321 -5.82888 -22.6446 1.84509 35.5164 -5.75688 9.95367e-10 5.87008e-10 2.70633e-11 1.71961e-09 1.00653e-09 1.74994e-11 9.95359e-10 5.8701e-10 2.70824e-11 -7.73091 5.47488 -0.417314 9.95366e-10 5.87007e-10 2.70697e-11 -2.90554 0.965183 -0.102902 9.95357e-10 5.87008e-10 2.70729e-11 -10.2786 0.731801 -0.0259123 9.95378e-10 5.87011e-10 2.70665e-11 -2.22167 -0.733487 0.20892 -2.03217e-16 0.0 -3.88251e-19 6.34439 -25.2373 25.4046 0.0437731 19.8046 1.42905 -49.6273 -32.8534 -61.67 2.03217e-16 0.0 3.88251e-19 -8.998 12.2089 -8.49191 -0.0304958 13.5102 -0.6428 7.72741 -13.3317 23.0052
123.909 86.3943 -208.8 10.3833 68.6639 365.441 -7.91373 -3.04913 -8.03273 3.72349 -7.30988 -1.95345 -7.76208 6.47976 -6.55479 17.7448 -7.22184 -10.249 -0.0 0.0 0.0 -0.0 0.0 0.0 8.70303e-14 8.86722e-14 3.0064e-13 13.4225 0.928787 28.1593 -13.0819 -6.23723 23.7238 -0.585911 21.2338 3.12995 -1.37356e-09 -5.29996e-09 -3.48963e-10 -2.37659e-09 -9.10742e-09 -5.77814e-10 -1.37356e-09 -5.29996e-09 -3.48959e-10 7.73091 5.47488 0.417314 -1.37356e-09 -5.29996e-09 -3.48959e-10 2.90554 0.965183 0.102902 -1.37355e-09 -5.29996e-09 -3.48961e-10 10.2786 0.731801 0.0259123 -1.37356e-09 -5.29996e-09 -3.48951e-10 2.22167 -0.733487 -0.20892 8.69154e-14 8.86798e-14 3.00292e-13 -30.113 7.6685 -48.9632 12.561 -5.85002 -22.7009 1.81126 35.2451 -5.69896 1.38584e-09 8.58009e-10 6.02064e-10 2.40935e-09 1.48545e-09 9.99125e-10 1.38584e-09 8.5801e-10 6.02083e-10 -7.73091 5.47488 -0.417314 1.38584e-09 8.58008e-10 6.02071e-10 -2.90554 0.965183 -0.102902 1.38583e-09 8.58009e-10 6.02074e-10 -10.2786 0.731801 -0.0259123 1.38585e-09 8.58012e-10 6.02068e-10 -2.22167 -0.733487 0.20892 -2.03217e-16 0.0 -3.88251e-19 6.18111 -25.1951 24.893 0.0441108 19.8097 1.4367 -49.7226 -32.499 -61.9301 2.03217e-16 0.0 3.88251e-19 -8.95345 12.4097 -7.81157 -0.0299555 13.622 -0.638314 7.36746 -12.9705 22.3625
124.525 86.2642 -208.437 10.6469 68.5809 365.743 -7.92302 -3.14192 -8.07028 3.67401 -7.28161 -1.96586 -7.6592 6.4279 -6.60336 17.8155 -7.32115 -10.3385 -0.0 0.0 0.0 -0.0 0.0 0.0 1.70947e-13 -2.29651e-13 2.14641e-13 13.953 0.157398 28.125 -12.9591 -6.14519 23.4807 -0.632646 22.0318 3.25948 -1.05429e-09 -5.11515e-09 -7.01875e-10 -1.83186e-09 -8.8223e-09 -1.19245e-09 -1.05428e-09 -5.11514e-09 -7.0187e-10 7.73091 5.47488 0.417314 -1.05428e-09 -5.11514e-09 -7.0187e-10 2.90554 0.965183 0.102902 -1.05428e-09 -5.11515e-09 -7.01874e-10 10.2786 0.731801 0.0259123 -1.05429e-09 -5.11515e-09 -7.01864e-10 2.22167 -0.733487 -0.20892 1.70779e-13 -2.29643e-13 2.14308e-13 -29.5994 7.89802 -49.1438 12.6149 -5.88945 -22.8062 1.75864 34.8116 -5.60754 1.8463e-09 1.20038e-09 1.61463e-09 3.23155e-09 2.09635e-09 2.73408e-09 1.84629e-09 1.20038e-09 1.61464e-09 -7.73091 5.47488 -0.417314 1.8463e-09 1.20038e-09 1.61463e-09 -2.90554 0.965183 -0.102902 1.84629e-09 1.20038e-09 1.61464e-09 -10.2786 0.731801 -0.0259123 1.84631e-09 1.20038e-09 1.61463e-09 -2.22167 -0.733487 0.20892 -2.03217e-16 0.0 -3.88251e-19 6.06786 -25.1567 24.2436 0.0427768 19.846 1.42497 -49.3945 -31.8065 -62.0507 2.03217e-16 0.0 3.88251e-19 -8.83957 12.6128 -7.04028 -0.0281367 13.745 -0.627384 7.00744 -12.6302 21.6251
125.012 86.4087 -208.135 10.8324 68.6428 366.025 -7.90691 -3.23636 -8.10015 3.62244 -7.25125 -1.97569 -7.52612 6.35934 -6.65522 17.8605 -7.42819 -10.4386 -0.0 0.0 0.0 -0.0 0.0 0.0 2.45963e-13 -5.43179e-13 1.04885e-13 14.5433 -0.697726 28.1082 -12.8203 -6.04135 23.208 -0.690066 22.9329 3.4083 -6.56319e-10 -4.72485e-09 -1.06606e-09 -1.15161e-09 -8.18698e-09 -1.82797e-09 -6.56315e-10 -4.72485e-09 -1.06605e-09 7.73091 5.47488 0.417314 -6.56313e-10 -4.72484e-09 -1.06605e-09 2.90554 0.965183 0.102902 -6.56313e-10 -4.72485e-09 -1.06605e-09 10.2786 0.731801 0.0259123 -6.5632e-10 -4.72485e-09 -1.06605e-09 2.22167 -0.733487 -0.20892 2.45748e-13 -5.43169e-13 1.04573e-13 -29.0836 8.12323 -49.3406 12.6674 -5.92794 -22.9093 1.71119 34.4079 -5.5236 2.23754e-09 1.5084e-09 2.65059e-09 3.93487e-09 2.6485e-09 4.51129e-09 2.23753e-09 1.5084e-09 2.6506e-09 -7.73091 5.47488 -0.417314 2.23754e-09 1.5084e-09 2.65059e-09 -2.90554 0.965183 -0.102902 2.23753e-09 1.5084e-09 2.6506e-09 -10.2786 0.731801 -0.0259123 2.23755e-09 1.5084e-09 2.65059e-09 -2.22167 -0.733487 0.20892 -2.03217e-16 0.0 -3.88251e-19 5.98244 -25.1039 23.5558 0.0404791 19.8982 1.40318 -48.8697 -31.0681 -62.0608 2.03217e-16 0.0 3.88251e-19 -8.7119 12.796 -6.33112 -0.025442 13.9157 -0.614468 6.67734 -12.3327 20.8817
125.619 86.2548 -207.678 11.3327 68.3642 366.608 -7.90227 -3.35993 -8.15125 3.61222 -7.22268 -1.98769 -7.39913 6.28851 -6.70775 17.8787 -7.53167 -10.5417 -0.0 0.0 0.0 -0.0 0.0 0.0 2.7763e-13 -6.98535e-13 2.87741e-14 14.943 -1.36739 28.0496 -12.7258 -5.97075 23.0235 -0.734749 23.5868 3.51801 -3.96625e-10 -4.54965e-09 -1.31437e-09 -7.07987e-10 -7.91042e-09 -2.26107e-09 -3.9662e-10 -4.54964e-09 -1.31437e-09 7.73091 5.47488 0.417314 -3.96615e-10 -4.54962e-09 -1.31437e-09 2.90554 0.965183 0.102902 -3.96619e-10 -4.54965e-09 -1.31437e-09 10.2786 0.731801 0.0259123 -3.96626e-10 -4.54965e-09 -1.31436e-09 2.22167 -0.733487 -0.20892 2.77395e-13 -6.98526e-13 2.84759e-14 -28.7669 8.2443 -49.5283 12.6926 -5.94638 -22.9587 1.69034 34.2265 -5.48622 2.42039e-09 1.67634e-09 3.29578e-09 4.26797e-09 2.95113e-09 5.61966e-09 2.42038e-09 1.67633e-09 3.29579e-09 -7.73091 5.47488 -0.417314 2.42039e-09 1.67634e-09 3.29578e-09 -2.90554 0.965183 -0.102902 2.42038e-09 1.67634e-09 3.29578e-09 -10.2786 0.731801 -0.0259123 2.42039e-09 1.67634e-09 3.29577e-09 -2.22167 -0.733487 0.20892 -2.03217e-16 0.0 -3.88251e-19 5.90251 -25.0206 22.9296 0.0378991 19.9513 1.38062 -48.373 -30.5695 -61.9718 2.03217e-16 0.0 3.88251e-19 -8.62314 12.9387 -5.83778 -0.022263 14.1707 -0.604031 6.40367 -12.1023 20.2205
